# File created by Blade
# Date/Time:  Mon Sep 22 17:23:16 2014
# Frame Rate: 120.000 fps
#------------------------------------------------------
:FULLY-SPECIFIED
:DEGREES
3788
root 0.988249 39.016686 -0.561075 12.192045 -26.916836 -39.632811
RightUpLeg -30.816988 -40.935203 -22.116723
RightLeg 118.697586 -0.000000 -0.000000
RightFoot 3.692831 -7.384184 24.430164
RightToeBase 4.087397 -0.000000 -0.000000
LeftUpLeg 7.030130 -0.290819 29.291634
LeftLeg 17.650525 -0.000000 -0.000000
LeftFoot -22.339103 15.855663 -18.493313
LeftToeBase 2.123068 -0.000000 -0.000000
Spine 20.835399 -6.493754 -1.632796
RightShoulder -4.198208 -32.028255 -6.254873
RightArm 13.441409 -11.607479 61.434229
RightForeArm -185.392775 -0.000000 111.000168
RightHand 93.949796 0.000000 -163.929819
RightHandThumb1 -24.326973 -0.000000 -32.862282
LeftShoulder -24.133206 31.604511 11.180591
LeftArm 64.636621 -37.087174 -69.584340
LeftForeArm 62.276479 -0.000000 136.365741
LeftHand -26.411287 -0.000000 -22.972600
LeftHandThumb1 -26.253704 0.000000 33.147579
Head 4.451105 37.465792 31.349888
3789
root 0.977701 39.011369 -0.557405 12.367759 -26.935391 -39.684835
RightUpLeg -30.634683 -40.426189 -22.302038
RightLeg 118.488954 -0.000000 -0.000000
RightFoot 3.773443 -7.726405 24.195701
RightToeBase 4.296716 -0.000000 -0.000000
LeftUpLeg 6.907122 -0.338994 29.319788
LeftLeg 17.709395 -0.000000 -0.000000
LeftFoot -22.319123 15.950482 -18.305499
LeftToeBase 1.895744 -0.000000 -0.000000
Spine 20.503507 -6.414092 -1.402126
RightShoulder -4.227471 -32.039728 -6.273858
RightArm 13.501085 -11.660283 61.406384
RightForeArm -185.301922 -0.000000 110.972977
RightHand 93.991088 -0.000000 -164.081343
RightHandThumb1 -24.326973 -0.000000 -32.862282
LeftShoulder -24.180958 31.603574 11.064961
LeftArm 64.572944 -36.987549 -69.358086
LeftForeArm 62.106022 -0.000000 136.070133
LeftHand -26.402678 -0.000000 -22.967641
LeftHandThumb1 -26.253704 0.000000 33.147579
Head 4.518187 37.421688 31.319834
3790
root 0.969569 39.005344 -0.553100 12.512133 -26.951004 -39.693150
RightUpLeg -30.415492 -39.892273 -22.572929
RightLeg 118.289950 -0.000000 -0.000000
RightFoot 3.932205 -7.876060 24.099589
RightToeBase 4.408018 -0.000000 -0.000000
LeftUpLeg 6.782760 -0.502439 29.282935
LeftLeg 17.781651 -0.000000 -0.000000
LeftFoot -22.384496 16.032996 -18.308333
LeftToeBase 1.827927 -0.000000 -0.000000
Spine 20.207698 -6.366121 -1.229314
RightShoulder -4.228452 -32.022822 -6.282344
RightArm 13.544105 -11.718583 61.355079
RightForeArm -185.310408 -0.000000 110.972508
RightHand 93.995770 -0.000000 -164.076468
RightHandThumb1 -24.326973 -0.000000 -32.862282
LeftShoulder -24.244028 31.584547 10.985276
LeftArm 64.480558 -36.886795 -69.188918
LeftForeArm 61.915153 0.000000 135.790473
LeftHand -26.367486 -0.000000 -22.916134
LeftHandThumb1 -26.253704 0.000000 33.147579
Head 4.616131 37.545693 31.390385
3791
root 0.964134 39.000329 -0.551092 12.699776 -26.976392 -39.689952
RightUpLeg -30.271556 -39.346882 -22.821096
RightLeg 118.096787 -0.000000 -0.000000
RightFoot 4.399581 -7.957644 23.502281
RightToeBase 4.224778 -0.000000 -0.000000
LeftUpLeg 6.612424 -0.691636 29.223138
LeftLeg 17.866984 -0.000000 -0.000000
LeftFoot -22.418259 16.156936 -18.256689
LeftToeBase 1.680265 -0.000000 -0.000000
Spine 19.846626 -6.281091 -1.071796
RightShoulder -4.253183 -32.091373 -6.249183
RightArm 13.639310 -11.728881 61.288018
RightForeArm -185.342955 -0.000000 110.941098
RightHand 94.054923 -0.000000 -164.157359
RightHandThumb1 -24.326973 -0.000000 -32.862282
LeftShoulder -24.305230 31.579919 10.914852
LeftArm 64.389432 -36.774911 -68.983640
LeftForeArm 61.788171 -0.000000 135.516539
LeftHand -26.443710 -0.000000 -22.751428
LeftHandThumb1 -26.253704 0.000000 33.147579
Head 4.675382 37.382415 31.355179
3792
root 0.956909 38.995101 -0.552348 12.953169 -27.016384 -39.744982
RightUpLeg -30.174312 -38.704689 -22.994621
RightLeg 117.904608 -0.000000 -0.000000
RightFoot 4.812511 -7.927603 23.301897
RightToeBase 4.412059 -0.000000 -0.000000
LeftUpLeg 6.419198 -0.909968 29.201627
LeftLeg 17.959731 -0.000000 -0.000000
LeftFoot -22.549547 16.316799 -18.287888
LeftToeBase 1.702604 -0.000000 -0.000000
Spine 19.428788 -6.187351 -0.832520
RightShoulder -4.277537 -32.085885 -6.285036
RightArm 13.704202 -11.821509 61.257312
RightForeArm -185.287384 0.000000 110.882647
RightHand 94.085541 -0.000000 -164.244425
RightHandThumb1 -24.326973 -0.000000 -32.862282
LeftShoulder -24.381881 31.625055 10.786991
LeftArm 64.348644 -36.715866 -68.848213
LeftForeArm 61.618651 -0.000000 135.234226
LeftHand -26.438434 -0.000000 -22.734398
LeftHandThumb1 -26.253704 0.000000 33.147579
Head 4.821643 37.402115 31.438429
3793
root 0.955424 38.988939 -0.554132 13.159724 -27.020771 -39.722896
RightUpLeg -30.053601 -38.062902 -23.269124
RightLeg 117.721336 -0.000000 -0.000000
RightFoot 5.337716 -7.971756 23.156436
RightToeBase 4.460440 -0.000000 -0.000000
LeftUpLeg 6.192534 -1.251690 29.090246
LeftLeg 18.062882 -0.000000 -0.000000
LeftFoot -22.628426 16.573630 -18.298498
LeftToeBase 1.571299 -0.000000 -0.000000
Spine 19.036831 -6.148541 -0.671530
RightShoulder -4.247070 -32.028684 -6.329866
RightArm 13.690853 -11.912386 61.269272
RightForeArm -185.291913 0.000000 110.848297
RightHand 94.071027 -0.000000 -164.296137
RightHandThumb1 -24.326973 -0.000000 -32.862282
LeftShoulder -24.423452 31.616269 10.720615
LeftArm 64.237208 -36.650360 -68.705244
LeftForeArm 61.440252 -0.000000 134.971591
LeftHand -26.466089 -0.000000 -22.836971
LeftHandThumb1 -26.253704 0.000000 33.147579
Head 4.963877 37.368158 31.484135
3794
root 0.956392 38.981002 -0.552602 13.360251 -26.976921 -39.670119
RightUpLeg -29.858975 -37.381041 -23.643466
RightLeg 117.547848 -0.000000 -0.000000
RightFoot 5.940019 -7.972192 23.129591
RightToeBase 3.965934 -0.000000 -0.000000
LeftUpLeg 5.921619 -1.689662 28.946348
LeftLeg 18.180768 -0.000000 -0.000000
LeftFoot -22.746424 16.866578 -18.347940
LeftToeBase 1.522458 -0.000000 -0.000000
Spine 18.628589 -6.154410 -0.512401
RightShoulder -4.261612 -32.088917 -6.350018
RightArm 13.822716 -11.957733 61.226195
RightForeArm -185.415774 0.000000 110.788060
RightHand 93.995887 -0.000000 -164.311924
RightHandThumb1 -24.326973 -0.000000 -32.862282
LeftShoulder -24.488856 31.619916 10.612425
LeftArm 64.157322 -36.588652 -68.559297
LeftForeArm 61.167672 -0.000000 134.707087
LeftHand -26.577533 -0.000000 -22.873934
LeftHandThumb1 -26.253704 0.000000 33.147579
Head 5.076974 37.285986 31.498422
3795
root 0.959500 38.971312 -0.550669 13.549504 -26.915362 -39.583214
RightUpLeg -29.622004 -36.600056 -24.103840
RightLeg 117.422654 -0.000000 -0.000000
RightFoot 6.507176 -7.919002 23.299767
RightToeBase 4.284596 -0.000000 -0.000000
LeftUpLeg 5.619559 -2.125376 28.780738
LeftLeg 18.325837 -0.000000 -0.000000
LeftFoot -22.878176 17.142209 -18.424023
LeftToeBase 1.441675 -0.000000 -0.000000
Spine 18.209809 -6.141964 -0.360028
RightShoulder -4.296761 -32.133446 -6.370063
RightArm 13.888599 -12.026147 61.208855
RightForeArm -185.361400 -0.000000 110.741036
RightHand 94.042432 -0.000000 -164.372201
RightHandThumb1 -24.326973 -0.000000 -32.862282
LeftShoulder -24.471260 31.615260 10.551118
LeftArm 64.047459 -36.564962 -68.443858
LeftForeArm 60.815164 -0.000000 134.465901
LeftHand -26.503539 -0.000000 -22.898809
LeftHandThumb1 -26.253704 0.000000 33.147579
Head 5.173680 37.173132 31.498923
3796
root 0.964559 38.963418 -0.552742 13.789255 -26.836322 -39.526466
RightUpLeg -29.402787 -35.725352 -24.528159
RightLeg 117.339754 -0.000000 -0.000000
RightFoot 7.033821 -7.967469 23.401673
RightToeBase 4.334377 -0.000000 -0.000000
LeftUpLeg 5.259605 -2.526455 28.665736
LeftLeg 18.502635 -0.000000 -0.000000
LeftFoot -22.991565 17.364977 -18.468589
LeftToeBase 1.336803 -0.000000 -0.000000
Spine 17.755383 -6.139255 -0.173753
RightShoulder -4.318282 -32.127035 -6.367893
RightArm 13.882017 -12.087077 61.166676
RightForeArm -185.471140 -0.000000 110.729793
RightHand 94.016835 -0.000000 -164.487308
RightHandThumb1 -24.326973 -0.000000 -32.862282
LeftShoulder -24.478803 31.616578 10.476351
LeftArm 63.986051 -36.484779 -68.361984
LeftForeArm 60.538062 -0.000000 134.249948
LeftHand -26.465494 -0.000000 -22.983712
LeftHandThumb1 -26.253704 0.000000 33.147579
Head 5.289872 37.086315 31.551794
3797
root 0.966941 38.958896 -0.556529 14.065921 -26.698041 -39.497392
RightUpLeg -29.128642 -34.740099 -24.951065
RightLeg 117.292319 -0.000000 -0.000000
RightFoot 7.446496 -7.953649 23.477840
RightToeBase 4.869978 -0.000000 -0.000000
LeftUpLeg 4.830952 -2.879301 28.618099
LeftLeg 18.697750 -0.000000 -0.000000
LeftFoot -23.103865 17.550809 -18.543041
LeftToeBase 1.252362 -0.000000 -0.000000
Spine 17.262471 -6.182441 0.061341
RightShoulder -4.343834 -32.204693 -6.344535
RightArm 13.927159 -12.077243 61.103651
RightForeArm -185.601654 -0.000000 110.735123
RightHand 93.958964 -0.000000 -164.381150
RightHandThumb1 -24.326973 -0.000000 -32.862282
LeftShoulder -24.501885 31.649425 10.373569
LeftArm 63.923357 -36.397888 -68.245802
LeftForeArm 60.311804 -0.000000 134.049411
LeftHand -26.529628 -0.000000 -22.942643
LeftHandThumb1 -26.253704 0.000000 33.147579
Head 5.345721 36.859585 31.485867
3798
root 0.966233 38.953164 -0.554608 14.279584 -26.520601 -39.468806
RightUpLeg -28.732664 -33.669256 -25.454699
RightLeg 117.307325 -0.000000 -0.000000
RightFoot 7.925527 -8.112372 23.108927
RightToeBase 5.007475 -0.000000 -0.000000
LeftUpLeg 4.449690 -3.169187 28.609018
LeftLeg 18.878269 -0.000000 -0.000000
LeftFoot -23.153796 17.669284 -18.513725
LeftToeBase 1.118912 -0.000000 -0.000000
Spine 16.851273 -6.245949 0.328962
RightShoulder -4.415609 -32.261360 -6.342285
RightArm 13.962180 -12.143020 61.048908
RightForeArm -185.695126 0.000000 110.740545
RightHand 94.031246 -0.000000 -164.500195
RightHandThumb1 -24.326973 -0.000000 -32.862282
LeftShoulder -24.542995 31.644096 10.256465
LeftArm 63.849741 -36.267373 -68.105628
LeftForeArm 60.004144 -0.000000 133.837960
LeftHand -26.585537 -0.000000 -22.865284
LeftHandThumb1 -26.253704 0.000000 33.147579
Head 5.406927 36.893389 31.558555
3799
root 0.966121 38.950483 -0.555008 14.511506 -26.337760 -39.435666
RightUpLeg -28.314046 -32.484666 -25.990965
RightLeg 117.357639 -0.000000 -0.000000
RightFoot 8.488026 -8.336664 22.494395
RightToeBase 4.373766 -0.000000 -0.000000
LeftUpLeg 4.046480 -3.316457 28.636620
LeftLeg 19.050249 -0.000000 -0.000000
LeftFoot -23.237423 17.649670 -18.572363
LeftToeBase 1.215059 -0.000000 -0.000000
Spine 16.413271 -6.305299 0.567189
RightShoulder -4.456678 -32.281931 -6.301608
RightArm 13.945389 -12.188227 60.974715
RightForeArm -185.847288 -0.000000 110.771092
RightHand 93.933126 -0.000000 -164.527313
RightHandThumb1 -24.326973 -0.000000 -32.862282
LeftShoulder -24.587252 31.683347 10.151252
LeftArm 63.852374 -36.129707 -68.063029
LeftForeArm 59.677562 -0.000000 133.664572
LeftHand -26.457086 -0.000000 -22.894855
LeftHandThumb1 -26.253704 0.000000 33.147579
Head 5.449089 36.734731 31.575004
3800
root 0.962589 38.949053 -0.553050 14.748700 -26.035513 -39.419051
RightUpLeg -27.744901 -31.245249 -26.602916
RightLeg 117.435050 -0.000000 -0.000000
RightFoot 9.000860 -8.714881 22.321801
RightToeBase 4.214293 -0.000000 -0.000000
LeftUpLeg 3.590560 -3.386888 28.753110
LeftLeg 19.199474 -0.000000 -0.000000
LeftFoot -23.225003 17.547985 -18.479818
LeftToeBase 1.015040 -0.000000 -0.000000
Spine 15.951645 -6.457719 0.896305
RightShoulder -4.506818 -32.310521 -6.275790
RightArm 13.874204 -12.201822 60.922823
RightForeArm -185.896813 -0.000000 110.820419
RightHand 93.976565 -0.000000 -164.599222
RightHandThumb1 -24.326973 -0.000000 -32.862282
LeftShoulder -24.572842 31.702270 10.041530
LeftArm 63.740133 -35.974283 -67.905843
LeftForeArm 59.422498 -0.000000 133.510237
LeftHand -26.334626 -0.000000 -22.983516
LeftHandThumb1 -26.253704 0.000000 33.147579
Head 5.555462 36.714217 31.704104
